# xmcd
# 
# Track frame offsets:
#     150
#     11648
#     28879
#     48527
#     76055
#     99240
#     117646
#     137923
#     165363
#     189276
#     211385
#     231962
#     254095
# 
# Disc length: 3661
# 
# Revision: 0
# Processed by: cddbd v1.5.2PL0 Copyright (c) Steve Scherf et al.
# Submitted via: fre:ac v1.0.17
# 
DISCID=af0e4b0d
DTITLE=Bruce Springsteen - We Shall Overcome The Seeger Sessions
DYEAR=2006
DGENRE=Americana
TTITLE0=Old Dan Tucker
TTITLE1=Jesse James
TTITLE2=Mrs. McGrath
TTITLE3=O Mary Don't You Weep
TTITLE4=John Henry
TTITLE5=Erie Canal
TTITLE6=Jacob's Ladder
TTITLE7=My Oklahoma Home
TTITLE8=Eyes On The Prize
TTITLE9=Shenandoah
TTITLE10=Pay Me My Money Down
TTITLE11=We Shall Overcome
TTITLE12=Froggie Went A Courtin'
EXTD=YEAR: 2006
EXTT0=
EXTT1=
EXTT2=
EXTT3=
EXTT4=
EXTT5=
EXTT6=
EXTT7=
EXTT8=
EXTT9=
EXTT10=
EXTT11=
EXTT12=
PLAYORDER=
